<svg xmlns="http://www.w3.org/2000/svg" xmlns:xlink="http://www.w3.org/1999/xlink" width="100" height="100">
    <style>
        circle {
            stroke: black;
            stroke-width: 2; 
            fill: none;
            
        }
        path {
            stroke: black;
            stroke-width: 2;
            fill: white;
        }
        .fill {fill: #4CAF50; }
    </style>
    <path d="M50 50 L50 10 A40 40 0 0 1 73.5 17.6 Z" class="fill" />
    <path d="M50 50 L73.5 17.6 A40 40 0 0 1 88 37.6 Z" class="fill" />
    <path d="M50 50 L88 37.6 A40 40 0 0 1 88 62.4 Z" class="fill" />
    <path d="M50 50 L88 62.4 A40 40 0 0 1 73.5 82.4 Z" class="fill" />
    <path d="M50 50 L73.5 82.4 A40 40 0 0 1 50 90 Z" class="fill"  />
    <path d="M50 50 L50 90 A40 40 0 0 1 26.5 82.4 Z" class="fill" />
    <path d="M50 50 L26.5 82.4 A40 40 0 0 1 12 62.4 Z" />
    <path d="M50 50 L12 62.4 A40 40 0 0 1 12 37.6 Z" />
    <path d="M50 50 L12 37.6 A40 40 0 0 1 26.5 17.6 Z" />
    <path d="M50 50 L26.5 17.6 A40 40 0 0 1 50 10 Z" />
    <circle cx="50" cy="50" r="40" />
</svg>