<svg xmlns="http://www.w3.org/2000/svg" xmlns:xlink="http://www.w3.org/1999/xlink" width="100" height="100">
    <style>
        circle {
            stroke: black;
            stroke-width: 2; 
            fill: none;
            
        }
        path {
            stroke: black;
            stroke-width: 2;
            fill: white;
        }
        .fill {fill: #4CAF50; }
    </style>
    <path d="M50 50 L50 10 A40 40 0 0 1 70 15.4 Z" class="fill" />
    <path d="M50 50 L70 15.4 A40 40 0 0 1 84.6 30 Z" class="fill" />
    <path d="M50 50 L84.6 30 A40 40 0 0 1 90 50 Z" class="fill" />
    <path d="M50 50 L90 50 A40 40 0 0 1 84.6 70 Z" class="fill" />
    <path d="M50 50 L84.6 70 A40 40 0 0 1 70 84.6 Z" class="fill" />
    <path d="M50 50 L70 84.6 A40 40 0 0 1 50 90 Z" class="fill" />
    <path d="M50 50 L50 90 A40 40 0 0 1 30 84.6 Z" class="fill" />
    <path d="M50 50 L30 84.6 A40 40 0 0 1 15.4 70 Z" class="fill" />
    <path d="M50 50 L15.4 70 A40 40 0 0 1 10 50 Z" class="fill" />
    <path d="M50 50 L10 50 A40 40 0 0 1 15.4 30 Z" />
    <path d="M50 50 L15.4 30 A40 40 0 0 1 30 15.4 Z" />
    <path d="M50 50 L30 15.4 A40 40 0 0 1 50 10 Z" />
    <circle cx="50" cy="50" r="40" />
</svg>