<svg xmlns="http://www.w3.org/2000/svg" xmlns:xlink="http://www.w3.org/1999/xlink" width="100" height="100">
    <style>
        circle {
            stroke: black;
            stroke-width: 2; 
            fill: none;
            
        }
        path {
            stroke: black;
            stroke-width: 2;
            fill: white;
        }
        .fill {fill: #001EFA }
    </style>
    <path d="M50 50 L50 10 A40 40 0 0 1 78.3 21.7 Z" class="fill" />
    <path d="M50 50 L78.3 21.7 A40 40 0 0 1 90 50 Z" class="fill" />
    <path d="M50 50 L90 50 A40 40 0 0 1 78.3 78.3 Z" />
    <path d="M50 50 L78.3 78.3 A40 40 0 0 1 50 90 Z" />
    <path d="M50 50 L50 90 A40 40 0 0 1 21.7 78.3 Z" />
    <path d="M50 50 L21.7 78.3 A40 40 0 0 1 10 50 Z" />
    <path d="M50 50 L10 50 A40 40 0 0 1 21.7 21.7 Z" />
    <path d="M50 50 L21.7 21.7 A40 40 0 0 1 50 10 Z" />
    <circle cx="50" cy="50" r="40" />
</svg>